<?xml version="1.0" encoding="utf-8"?>
<!-- Generator: Adobe Illustrator 17.0.0, SVG Export Plug-In . SVG Version: 6.00 Build 0)  -->
<!DOCTYPE svg PUBLIC "-//W3C//DTD SVG 1.1//EN" "http://www.w3.org/Graphics/SVG/1.1/DTD/svg11.dtd">
<svg version="1.1" id="Layer_1" xmlns="http://www.w3.org/2000/svg" xmlns:xlink="http://www.w3.org/1999/xlink" x="0px" y="0px"
	 width="1303.238px" height="1404.482px" viewBox="0 0 1303.238 1404.482" enable-background="new 0 0 1303.238 1404.482"
	 xml:space="preserve">
<g>
	<rect y="-155.518" opacity="0.7" fill="#E6E7E8" width="2340" height="1560"/>
	<rect y="-155.518" fill="#E6E7E8" width="2340" height="1560"/>
</g>
<ellipse fill="#FF5E5D" cx="2144.217" cy="1144.634" rx="170.641" ry="151.681"/>
<path fill="#C64A9A" d="M0,214.013c38.457,19.096,82.767,29.994,129.947,29.994c147.385,0,266.865-106.204,266.865-237.213
	c0-62.794-27.461-119.879-72.275-162.312H0V214.013z"/>
<path fill="#5C3DC6" d="M2340-155.518v383.015c-39-8.511-80.633-13.78-124.82-13.78c-340.587,0-704.086,312.797-704.086,10.053
	c0-119.808,89.115-263.623,210.425-379.288H2340z"/>
<path id="XMLID_1_" fill="#EEF9FF" d="M1291.675,1250H11.563C5.177,1250,0,1242.055,0,1232.255V17.745C0,7.945,5.177,0,11.563,0
	h1280.113c6.386,0,11.563,7.945,11.563,17.745v1214.511C1303.238,1242.055,1298.061,1250,1291.675,1250z"/>
<g>
	<g>
		<path fill="#E3EEFF" d="M1148.661,640.401l-6.759-3.744c3.976-7.172,7.526-14.763,10.554-22.566l7.202,2.796
			C1156.501,625.013,1152.802,632.925,1148.661,640.401z M1167.467,592.164l-7.499-1.863c1.969-7.92,3.513-16.185,4.592-24.569
			l7.66,0.986C1171.106,575.394,1169.507,583.957,1167.467,592.164z M1174.149,540.944l-7.725-0.184
			c0.048-1.973,0.07-3.949,0.07-5.93c0-6.287-0.234-12.728-0.691-19.143l7.705-0.551c0.473,6.597,0.712,13.223,0.712,19.693
			C1174.219,536.872,1174.197,538.911,1174.149,540.944z M1162.913,490.736c-1.297-8.16-2.962-16.456-4.949-24.657l7.509-1.818
			c2.032,8.4,3.739,16.9,5.069,25.261L1162.913,490.736z M1151.13,441.853c-2.547-7.896-5.437-15.86-8.585-23.67l7.167-2.887
			c3.216,7.979,6.166,16.115,8.771,24.183L1151.13,441.853z M1132.318,395.163c-3.661-7.527-7.629-15.02-11.794-22.271l6.699-3.847
			c4.252,7.403,8.303,15.054,12.04,22.738L1132.318,395.163z M1107.222,351.485c-4.68-6.977-9.651-13.844-14.773-20.41l6.09-4.753
			c5.235,6.712,10.318,13.73,15.1,20.86L1107.222,351.485z M856.62,351.333l-0.417-7.715c8.517-0.458,16.687-1.748,24.289-3.831
			l2.042,7.451C874.403,349.466,865.683,350.844,856.62,351.333z M830.478,350.243c-9.201-1.274-17.781-3.432-25.506-6.416
			l2.786-7.207c7.167,2.77,15.168,4.779,23.781,5.971L830.478,350.243z M906.802,337.044l-3.772-6.742
			c7.541-4.216,14.406-8.898,20.401-13.916l4.959,5.924C922.025,327.636,914.761,332.594,906.802,337.044z M782.079,329.71
			c-6.538-6.62-9.855-14.111-9.855-22.264c0-1.295,0.086-2.614,0.256-3.917l7.66,0.998c-0.126,0.974-0.191,1.955-0.191,2.918
			c0,6.049,2.565,11.713,7.627,16.835L782.079,329.71z M1076.234,311.827c-5.696-6.259-11.633-12.285-17.65-17.91l5.276-5.643
			c6.168,5.767,12.254,11.942,18.088,18.353L1076.234,311.827z M946.422,303.082l-6.287-4.489
			c4.924-6.896,8.487-14.145,10.592-21.544l7.428,2.112C955.809,287.416,951.861,295.463,946.422,303.082z M790.689,284.262
			l-5.819-5.08c5.034-5.769,11.635-11.64,19.622-17.453l4.546,6.246C801.517,273.449,795.346,278.928,790.689,284.262z
			 M1039.511,277.582c-6.679-5.22-13.566-10.091-20.469-14.475l4.144-6.52c7.111,4.519,14.205,9.534,21.083,14.91L1039.511,277.582z
			 M830.121,254.569l-3.787-6.734c7.657-4.305,15.515-8.098,23.351-11.272l2.902,7.159
			C845.05,246.774,837.494,250.424,830.121,254.569z M952.402,253.466c-0.993-6.872-3.284-13.52-6.817-19.799
			c-6.666-1.173-13.375-1.955-20.004-2.33l0.438-7.712c8.537,0.482,17.2,1.611,25.745,3.353l-0.294,1.437
			c4.486,7.536,7.37,15.586,8.577,23.947L952.402,253.466z M997.235,250.837c-7.582-3.729-15.324-6.981-23.014-9.661l2.545-7.295
			c7.981,2.785,16.016,6.157,23.879,10.023L997.235,250.837z M876.252,236.005l-1.866-7.496c8.439-2.1,17.062-3.577,25.626-4.389
			l0.729,7.69C892.559,232.586,884.319,233.997,876.252,236.005z M612.181,231.134l-2.776-7.209
			c7.72-2.975,15.837-5.891,24.12-8.665l2.454,7.325C627.805,225.323,619.798,228.199,612.181,231.134z M660.135,215.029
			l-2.163-7.416c8.087-2.357,16.4-4.616,24.704-6.71l1.891,7.491C676.352,210.465,668.132,212.698,660.135,215.029z
			 M928.103,213.382c-6.012-4.873-13.013-9.178-20.811-12.798l3.254-7.006c8.371,3.886,15.915,8.53,22.42,13.804L928.103,213.382z
			 M709.228,202.637l-1.624-7.551c8.248-1.778,16.695-3.446,25.103-4.961l1.368,7.602
			C725.754,199.226,717.393,200.878,709.228,202.637z M759.073,193.645L757.956,186c8.391-1.228,16.926-2.337,25.365-3.298
			l0.875,7.675C775.838,191.329,767.384,192.428,759.073,193.645z M883.992,192.384c-7.685-1.97-15.925-3.449-24.495-4.396
			l0.85-7.677c8.929,0.986,17.529,2.53,25.564,4.589L883.992,192.384z M809.413,187.91l-0.634-7.7
			c1.888-0.155,3.79-0.304,5.701-0.446c6.807-0.51,13.546-0.777,20.026-0.792l0.02,7.725c-6.297,0.015-12.847,0.274-19.471,0.769
			C813.162,187.608,811.281,187.756,809.413,187.91z"/>
	</g>
	<path fill="#E3EEFF" d="M1125.177,821.032c-40.867,58.564-93.589,114.337-154.208,158.968
		c-77.732,57.266-168.444,96.207-263.915,99.301c-98.955,3.224-179.001-14.992-241.589-52.03
		c-23.603-13.954-44.718-30.569-63.453-49.737c-44.523-45.475-75.59-105.25-94.325-177.465
		c-51.857-199.965,50.927-257.62,242.584-224.238c23.516,4.067,48.374,9.541,74.443,16.269
		c79.787,20.661,165.437,31.045,248.404,30.591c7.983-0.043,15.923-0.173,23.884-0.433c46.903-1.45,94.974-10.947,133.721-37.47
		c41.516-28.384,71.285-77.148,120.524-93.979c42.598-14.538,57.936,26.935,63.237,61.766
		C1225.712,626.455,1190.599,727.313,1125.177,821.032z"/>
	<path fill="#E3EEFF" d="M281.443,1027.534c15.938,8.559,29.016,39.618-44.955,39.618c-63.057,0-164.378-17.485-164.378-32.929
		c0-15.444,51.118-20.607,114.175-20.607S265.658,1019.057,281.443,1027.534z"/>
	<path fill="#E3EEFF" d="M1130.122,1116.583c6.74,17.697-46.575-1.641-119.298,5.568c-108.927,10.798-142.946,0.073-142.946-18.864
		s60.576-45.253,133.655-45.253S1118.473,1085.998,1130.122,1116.583z"/>
	<path fill="#CCDFFF" d="M914.215,601.048l-82.43,413.387c-2.245,11.258-12.61,19.018-24.045,18l-301.181-26.797
		c-23.589-13.952-44.701-30.577-63.435-49.728l148.252-401.722c23.515,4.071,48.379,9.539,74.445,16.282
		C745.611,591.117,831.261,601.514,914.215,601.048z"/>
	<path fill="#9B87E1" d="M795.331,335.594l-351.315-29.64c-3.672-0.31-7.074,0.572-9.884,2.319v-0.009l-14.641,8.917l5.824,2.689
		l1.633-1.117c-0.231,1.138-0.352,2.325-0.352,3.551v630.946c0,9.842,7.8,18.479,17.421,19.29l345.031,29.11l-1.063,8.564
		l15.6-9.463c1.025-0.478,1.987-1.064,2.875-1.744l0.014-0.008v-0.003c3.836-2.945,6.28-7.659,6.28-13.166V354.884
		C812.752,345.042,804.953,336.405,795.331,335.594z"/>
	<path fill="#5C3DC6" d="M796.587,364.623v630.941c0,9.857-7.798,17.164-17.41,16.355L427.87,982.273
		c-9.637-0.809-17.434-9.44-17.434-19.273V332.059c0-9.857,7.798-17.164,17.434-16.355l351.307,29.645
		C788.79,346.159,796.587,354.79,796.587,364.623z"/>
	<path fill="#CEE2FF" d="M771.978,396.938v549.789c0,6.75-5.344,11.791-11.964,11.228l-222.789-20.617l-90.193-7.615
		c-4.846-0.411-9-3.678-10.882-8.07c-0.714-1.601-1.103-3.353-1.103-5.192V366.671c0-6.772,5.365-11.791,11.985-11.228
		l266.144,24.273l26.696,2.25l20.141,1.709C766.634,384.217,771.978,390.166,771.978,396.938z"/>
	<path fill="#83A7E1" d="M675.443,693.543l-152.984-17.916c-8-0.937-14.03-7.715-14.03-15.769l0,0c0-9.5,8.288-16.874,17.724-15.769
		l152.984,17.916c8,0.937,14.03,7.715,14.03,15.769v0C693.167,687.275,684.879,694.648,675.443,693.543z"/>
	<path fill="#2C0F90" d="M620.091,972.714c0,9.364-7.42,16.328-16.574,15.556c-9.153-0.772-16.574-8.989-16.574-18.353
		s7.42-16.328,16.574-15.556C612.671,955.133,620.091,963.35,620.091,972.714z"/>
	<path fill="#2C0F90" d="M610.776,348.823c0,4.101-3.25,7.151-7.259,6.813c-4.009-0.338-7.259-3.937-7.259-8.038
		c0-4.101,3.25-7.151,7.259-6.813C607.526,341.123,610.776,344.722,610.776,348.823z"/>
	<path fill="#2C0F90" d="M580.687,346.284c0,2.275-1.803,3.967-4.027,3.779c-2.224-0.188-4.027-2.184-4.027-4.459
		c0-2.275,1.803-3.967,4.027-3.779C578.885,342.013,580.687,344.009,580.687,346.284z"/>
	<path fill="#2C0F90" d="M626.348,350.137c0,2.275,1.803,4.271,4.027,4.459c2.224,0.188,4.027-1.504,4.027-3.779
		c0-2.275-1.803-4.271-4.027-4.459C628.15,346.17,626.348,347.862,626.348,350.137z"/>
	<path fill="#83A7E1" d="M676.829,563.159c0,41.419-32.823,72.226-73.312,68.81c-40.489-3.416-73.312-39.761-73.312-81.18
		c0-41.418,32.823-72.226,73.312-68.81C644.006,485.395,676.829,521.74,676.829,563.159z"/>
	<path fill="#386DC1" d="M652.819,589.422c2.164,4.388,1.355,9.718-2.031,13.25c-11.666,12.168-28.521,18.998-47.27,17.417
		c-19.104-1.612-36.241-11.626-47.926-26.2c-2.957-3.688-3.535-8.808-1.28-12.962c5.765-10.62,15.039-18.772,26.309-23.007
		c-7.026-7.004-11.423-16.734-11.423-27.127c0-19.39,15.366-33.812,34.32-32.213c18.954,1.599,34.32,18.614,34.32,38.004
		c0,10.393-4.397,19.381-11.423,25.2C637.747,567.954,647.061,577.744,652.819,589.422z"/>
	<path fill="#83A7E1" d="M636.617,857.581c0,18.7-14.819,32.609-33.099,31.067c-18.28-1.542-33.099-17.952-33.099-36.652
		c0-18.7,14.819-32.609,33.099-31.067C621.798,822.472,636.617,838.881,636.617,857.581z"/>
	<path fill="#FF8686" d="M525.183,848.18c0,16.83-13.337,29.348-29.789,27.96c-16.452-1.388-29.789-16.157-29.789-32.986
		s13.337-29.348,29.789-27.96C511.846,816.581,525.183,831.35,525.183,848.18z"/>
	<path fill="#9B87E1" d="M681.852,861.397c0,16.83,13.337,31.598,29.789,32.986s29.789-11.13,29.789-27.96
		s-13.337-31.598-29.789-32.986C695.189,832.05,681.852,844.568,681.852,861.397z"/>
	<path fill="#CCDFFF" d="M618.374,873.524l-9.065-10.038c-1.843,0.225-3.831-0.486-5.257-2.065l-6.949-7.695
		c-1.426-1.579-1.957-3.657-1.585-5.512l-9.058-10.03C577.831,848.896,609.369,882.96,618.374,873.524z"/>
	<path fill="#CCDFFF" d="M586.46,838.184l9.058,10.03c0.22-1.091,0.743-2.11,1.585-2.901l2.177-2.043
		c0.895-0.84,0.895-2.315,0-3.306l-5.174-5.729c-0.895-0.991-2.336-1.113-3.232-0.273l-3.725,3.496
		C586.908,837.687,586.672,837.923,586.46,838.184z"/>
	<path fill="#CCDFFF" d="M609.309,863.486l9.065,10.038c0.273-0.194,0.523-0.414,0.766-0.642l3.725-3.496
		c0.895-0.84,0.895-2.315,0-3.306l-5.181-5.737c-0.895-0.991-2.336-1.113-3.232-0.273l-2.177,2.043
		C611.433,862.904,610.394,863.352,609.309,863.486z"/>
	<path fill="#FFCCCC" d="M477.207,843.152l10.086,0.851c0.819-1.191,2.22-1.902,3.806-1.768l7.731,0.652
		c1.587,0.134,2.988,1.081,3.806,2.41l10.077,0.85C511.293,834.754,476.672,832.311,477.207,843.152z"/>
	<path fill="#FFCCCC" d="M512.713,846.148l-10.077-0.85c0.481,0.783,0.768,1.697,0.768,2.655v2.478c0,1.019,0.802,1.907,1.798,1.991
		l5.756,0.486c0.996,0.084,1.798-0.669,1.798-1.687v-4.239C512.755,846.704,512.747,846.427,512.713,846.148z"/>
	<path fill="#FFCCCC" d="M487.293,844.003l-10.086-0.851c-0.034,0.273-0.042,0.549-0.042,0.825v4.239
		c0,1.019,0.802,1.907,1.798,1.991l5.764,0.486c0.996,0.084,1.798-0.669,1.798-1.687v-2.478
		C486.525,845.57,486.812,844.705,487.293,844.003z"/>
	<path fill="#D8CCFF" d="M729.572,855.281l-29.106-2.452c-3.188-0.27-5.787,2.158-5.787,5.443v13.658
		c0,3.286,2.599,6.155,5.787,6.424l18.292,1.545c3.188,0.27,5.787-2.182,5.787-5.443v-10.054c0-3.604,3.286-6.375,5.444-7.822
		C730.529,856.213,730.234,855.354,729.572,855.281z M701.974,858.982l9.75,0.818c1.108,0.093,1.959,1.019,1.959,2.131l0,0
		c0,1.251-1.07,2.235-2.317,2.131l-9.75-0.818c-1.108-0.093-1.959-1.019-1.959-2.131l0,0
		C699.657,859.861,700.727,858.877,701.974,858.982z M716.797,872.496l-15.193-1.284c-1.101-0.093-1.947-1.013-1.947-2.118l0,0
		c0-1.245,1.064-2.223,2.305-2.118l15.193,1.284c1.101,0.093,1.947,1.014,1.947,2.118l0,0
		C719.102,871.622,718.038,872.6,716.797,872.496z"/>
	<path opacity="0.1" d="M438.095,548.748l-27.659,4.953v-96.734l49.63-8.901l12.211,45.584
		C479.192,519.446,463.891,544.114,438.095,548.748z"/>
	<path fill="#9B87E1" d="M412.793,539.631l-86.288-7.28v-47.188c0-26.706,21.163-46.569,47.27-44.367l86.288,7.28v47.188
		C460.063,521.97,438.9,541.834,412.793,539.631z"/>
	<path fill="#5C3DC6" d="M419.18,522.218l-16.345-18.1c-3.324,0.405-6.907-0.877-9.479-3.724l-12.529-13.874
		c-2.572-2.848-3.529-6.594-2.859-9.938l-16.332-18.085C346.077,477.812,402.943,539.232,419.18,522.218z"/>
	<path fill="#5C3DC6" d="M361.635,458.498l16.332,18.085c0.397-1.967,1.34-3.805,2.859-5.23l3.926-3.685
		c1.614-1.515,1.614-4.173,0-5.961l-9.329-10.33c-1.614-1.787-4.213-2.007-5.827-0.492l-6.716,6.304
		C362.442,457.6,362.018,458.026,361.635,458.498z"/>
	<path fill="#5C3DC6" d="M402.834,504.118l16.345,18.1c0.492-0.35,0.944-0.746,1.382-1.157l6.716-6.304
		c1.614-1.515,1.614-4.173,0-5.961l-9.342-10.345c-1.614-1.787-4.213-2.007-5.827-0.492l-3.926,3.685
		C406.664,503.07,404.79,503.877,402.834,504.118z"/>
	<path fill="#83A7E1" d="M278.094,385.353c0-2.573-2.032-4.229-5.417-4.515c-2.19-0.185-4.664,0.504-6.988,1.832
		c-1.422,0.813-3.239,0.202-3.961-1.268l0,0c-0.671-1.365-0.185-3.046,1.142-3.79c3.34-1.873,7.001-2.8,10.726-2.486
		c6.675,0.563,11.27,4.415,11.27,9.808c0,3.562-2.66,7.247-6.433,10.887l-8.706,8.121l13.974,1.179
		c1.506,0.127,2.665,1.387,2.665,2.899l0,0c0,1.703-1.457,3.042-3.154,2.899l-18.675-1.576c-1.851-0.156-3.274-1.704-3.274-3.562
		l0,0c0-0.967,0.392-1.893,1.086-2.567l11.683-11.327C276.449,389.667,278.094,387.183,278.094,385.353z"/>
	<path fill="#83A7E1" d="M305.794,382.181l-8.689,16.008l9.383,0.792v-4.694c0-1.761,1.506-3.145,3.26-2.996h0
		c1.55,0.131,2.745,1.423,2.754,2.978l0.032,5.223l2.24,0.189c1.468,0.124,2.596,1.351,2.596,2.825l0,0
		c0,1.66-1.419,2.964-3.073,2.825l-1.812-0.153v4.951c0,1.756-1.501,3.136-3.251,2.988l0,0c-1.553-0.131-2.747-1.43-2.747-2.988
		v-5.457l-12.427-1.048c-2.135-0.18-3.776-1.965-3.776-4.108v0c0-0.695,0.176-1.378,0.51-1.987l9.957-18.1
		c0.547-0.994,1.628-1.573,2.758-1.478v0C305.576,378.122,306.783,380.359,305.794,382.181z"/>
	<path fill="#83A7E1" d="M331.017,378.013c-8.447-17.295-25.894-28.621-43.996-28.844l1.211-4.86c0.127-0.508-0.45-0.897-0.874-0.59
		l-13.867,10.056c-1.113,0.807-0.726,2.554,0.624,2.815l16.07,3.502c0.451,0.098,0.821-0.36,0.63-0.78l-1.557-3.427
		c14.887,0.884,29.029,10.427,36.006,24.712c10.051,20.578,2.537,44.36-16.751,53.015c-18.49,8.299-41.206-0.282-51.902-19.15
		c-0.789-1.392-2.527-1.927-3.987-1.272h0c-1.71,0.767-2.363,2.848-1.431,4.474c8.567,14.95,23.629,24.303,39.169,25.614
		c7.143,0.603,14.389-0.494,21.15-3.527C333.972,429.671,342.722,401.976,331.017,378.013z"/>
	<path fill="#9B87E1" d="M755.457,407.966v34.626c0,1.884-1.498,3.289-3.339,3.134l-56.685-4.782
		c-1.841-0.155-3.339-1.814-3.339-3.698V402.62c0-1.054,0.467-1.961,1.207-2.53c0.581-0.447,1.33-0.672,2.132-0.604l56.685,4.782
		c0.802,0.068,1.551,0.419,2.132,0.964C754.99,405.926,755.457,406.912,755.457,407.966z"/>
	<path fill="#775DD4" d="M754.25,405.233l-28.774,16.408c-1.04,0.588-2.361,0.477-3.401-0.287L693.3,400.09
		c0.581-0.447,1.33-0.672,2.132-0.604l56.685,4.782C752.919,404.336,753.668,404.688,754.25,405.233z"/>
	<path fill="#775DD4" d="M804.914,506.181L804.914,506.181c-2.255,0.886-4.084-0.224-4.084-2.479v-45.789
		c0-2.255,1.828-4.802,4.084-5.688l0,0c2.255-0.886,4.084,0.224,4.084,2.479v45.789C808.998,502.749,807.17,505.295,804.914,506.181
		z"/>
	<path fill="#775DD4" d="M804.914,542.813L804.914,542.813c-2.255,0.886-4.084-0.224-4.084-2.479V524.74
		c0-2.255,1.828-4.802,4.084-5.688l0,0c2.255-0.886,4.084,0.224,4.084,2.479v15.593C808.998,539.38,807.17,541.926,804.914,542.813z
		"/>
	<path fill="#D972B5" d="M1109.695,745.366l-7.165,7.165l-61.122-61.122l7.165-7.165c4.451-4.451,10.941-5.657,16.49-3.607
		c2.051,0.748,3.981,1.954,5.633,3.607l38.999,38.999c1.653,1.653,2.859,3.583,3.607,5.657
		C1115.364,734.437,1114.146,740.915,1109.695,745.366z"/>
	<path fill="#D972B5" d="M1141.166,701.035l-27.865,27.865c-0.748-2.075-1.954-4.005-3.607-5.657l-38.999-38.999
		c-1.653-1.653-3.583-2.859-5.633-3.607l27.853-27.853c9.976-9.976,25.235-11.459,36.779-4.427c2.015,1.218,3.896,2.69,5.633,4.427
		l5.826,5.826c1.737,1.737,3.209,3.619,4.427,5.633C1152.614,675.788,1151.142,691.06,1141.166,701.035z"/>
	<path fill="#D972B5" d="M1156.739,653.086l-11.158,11.158c-1.218-2.015-2.69-3.896-4.427-5.633l-5.826-5.826
		c-1.737-1.737-3.619-3.209-5.633-4.427l11.158-11.158c4.391-4.391,11.496-4.379,15.887,0.012c2.183,2.183,3.293,5.054,3.281,7.937
		C1160.032,648.008,1158.934,650.891,1156.739,653.086z"/>
	<path fill="#C64A9A" d="M1082.831,732.833c-5.995,5.995-15.718,5.995-21.713,0c-6.007-6.007-6.007-15.73-0.012-21.725
		L1082.831,732.833z"/>
	<circle fill="#FF5E5D" cx="1152.01" cy="690.191" r="16.206"/>
	<path fill="#FFCCCC" d="M1156.594,689.036c0.933-0.933,0.718-2.226-0.539-3.483c-0.764-0.764-1.908-1.062-3.219-1.214
		c-0.986-0.115-1.634-1.091-1.385-2.052v0c0.23-0.888,1.14-1.413,2.031-1.197c1.942,0.471,3.677,1.367,5.015,2.705
		c2.477,2.477,2.925,5.438,0.968,7.395c-1.293,1.293-3.697,1.724-6.532,1.759l-6.445-0.018l4.479,4.479
		c0.902,0.902,0.814,2.39-0.189,3.179l0,0c-0.873,0.686-2.126,0.587-2.88-0.228l-5.719-6.182c-0.689-0.745-0.757-1.872-0.162-2.694
		l0.329-0.454c0.394-0.544,1.022-0.871,1.694-0.881l8.552-0.127C1154.368,690.04,1155.929,689.701,1156.594,689.036z"/>
	<g>
		<path fill="#E1DEFF" d="M1167.302,630.949l-5.814-5.087c2.764-3.158,5.439-6.445,7.951-9.768l6.161,4.657
			C1172.978,624.222,1170.187,627.652,1167.302,630.949z"/>
	</g>
	<path fill="#B72985" d="M286.086,699.739l21.422,6.252c-24.549-91.934,12.082-116.954-19.536-169.547l-15.164,22.803
		L286.086,699.739z"/>
	<path fill="#386DC1" d="M294.711,695.539l-2.395,147.709l-0.445,4.808c-0.146,2.042-0.403,4.498-0.766,6.696
		c-0.18,1.127-0.39,2.247-0.623,3.36l-0.178,0.824l-0.144,0.586l-0.287,1.172l-1.149,4.69l-4.595,18.76l-36.758,150.078
		l-15.198-2.546l14.149-153.865l1.769-19.233l0.442-4.808l0.111-1.202l0.055-0.601l0.013-0.364l0.005-1.414
		c-0.017-0.994-0.086-1.746-0.188-2.914l-0.272-4.821l-2.173-38.567l-5.872-104.222L294.711,695.539z"/>
	<path fill="#5886CE" d="M115.501,1003.75c11.585-24.474,22.884-49.1,34.336-73.645l33.87-73.893l8.466-18.474l2.095-4.63
		c0.412-0.895,0.537-1.243,0.734-1.771c0.187-0.498,0.358-1,0.514-1.504c0.634-2.013,1.059-4.052,1.268-6.083l2.389-38.834
		l2.494-40.58l1.247-20.29l0.624-10.145l0.312-5.073c-0.161-1.724,1.269-3.248-2.155-5.384l71.115-1.973
		c-3.847,1.219-38.966,139.836-41.015,144.03c-0.51,1.05-1.046,2.084-1.609,3.101c-0.541,0.993-1.212,2.136-1.592,2.735
		l-2.663,4.328l-10.564,17.36l-42.249,69.443c-13.921,23.234-27.995,46.386-41.783,69.691L115.501,1003.75z"/>
	<path opacity="0.1" d="M201.99,739.073c12.494-1.058,76.322-7.595,92.427-25.373l0.294-7.708c0,0-41.812-3.532-42.425-3.327
		s-40.255,8.582-40.459,9.195s-9.837,15.53-9.837,15.53V739.073z"/>
	<path fill="#D972B5" d="M288.752,621.77c-8.398,42.496,13.895,64.019,10.611,79.701c-3.969,18.891-77.763,27.876-100.036,11.508
		c0,0,11.903-170.972,58.654-186.58c1.74-0.613,3.504-0.98,5.342-1.152c4.46-0.417,11.296-2.573,20.288,5.072
		c0.098,0.098,0.221,0.196,0.319,0.269c0,0,0,0.025,0.025,0.049v0.025c0,0.122-0.221,0.392-0.122,0.466
		c0.27,0.245,0.539,0.515,0.808,0.809c0.809,1.495,2.205,3.822,3.332,4.508c1.813,4.435,4.851,13.501,8.821,21.954
		C306.423,579.079,294.711,591.612,288.752,621.77z"/>
	<path fill="#0B3D8B" d="M230.114,1029.938c-2.482,7.39-3.479,10.993-0.997,18.383h48.6c2.39,0,2.568-3.867,0.611-5.238
		c-11.749-4.887-22.523-8.241-28.361-15.549C241.924,1029.144,236.65,1032.168,230.114,1029.938z"/>
	<path fill="#0B3D8B" d="M115.475,1001.555c-6.26,4.646-9.137,7.033-11.324,14.515l39.881,27.775
		c1.961,1.366,4.318-1.706,3.494-3.949c-6.849-10.725-13.773-19.635-14.386-28.968
		C125.62,1007.653,119.564,1007.12,115.475,1001.555z"/>
	<path fill="#FF8686" d="M287.973,536.445c-0.564,0.27-1.127,0.441-1.446,0.539c-10.634,1.862-19.896-2.205-28.546-10.585
		c-0.024-0.025-0.024-0.025-0.049-0.049c0,0,4.827-5.538-1.372-13.672c0,0,30.163-12.325,26.928-1.201
		c-2.499,8.551-1.103,15.118,0.441,19.112c0,0,0,0.025,0.025,0.049v0.025c0.098,0.172,0.343,0.637,0.686,1.274
		C285.449,533.431,286.846,535.759,287.973,536.445z"/>
	<path fill="#FFB3B3" d="M294.596,500.832c-1.189,1.286-2.263,2.063-3.154,2.518c0.54,10.683-3.488,18.162-17.013,18.295
		c-10.848,0.144-19.442-3.174-26.428-8.867c-0.746-0.597-1.443-1.205-2.151-1.861c-2.613-2.445-4.971-5.228-7.135-8.284
		c-0.532-2.709-2.098-5.593-3.277-9.711c-0.652-4.262-0.734-9.62,0.592-16.645c0.575-3.11,1.672-5.828,3.152-8.2
		c2.096-3.375,4.994-6.014,8.365-8.02c9.538-2.347,19.996-3.32,25.609-4.76c0.358-0.106,0.728-0.163,1.073-0.216l0.243-0.055
		c0.03,0.019,0.065,0.062,0.07,0.086c4.009,4.119,5.997,7.979,5.997,7.979c1.028,0.381,2.064,0.683,3.052,0.996
		c0.23,1.706,0.31,3.421,0.3,4.85c-0.019,2.297-0.239,3.927-0.239,3.927c0.163,0.498,0.35,0.991,0.513,1.49
		c0.456,1.35,0.907,2.676,1.382,3.996c1.184,3.454,2.289,6.901,3.192,10.24C291.891,492.649,296.293,498.973,294.596,500.832z"/>
	<polygon opacity="0.1" points="387.91,513.112 380.499,536.906 372.564,536.118 383.306,509.181 	"/>
	<path fill="#FFB3B3" d="M377.057,485.876c-3.139,1.167-8.446,10.95-3.748,24.302c0.003,0.007,0.005,0.012,0.008,0.019
		l-36.97,49.436l-13.345,18.697l-3.336,4.674l-1.501,2.103l-33.297-19.469c-1.802,8.279-5.709,15.946-12.058,22.904l37.567,17.474
		c7.792,3.089,17.105,0.83,22.509-5.326c0.679-0.756,1.298-1.554,1.848-2.394c0.353-0.516,0.351-0.554,0.507-0.804l0.369-0.616
		l1.476-2.463l2.951-4.926l11.806-19.705l30.294-52.506c5.458-2.07,6.948-14.504,12.298-21.653
		C397.715,491.238,384.723,483.025,377.057,485.876z M317.285,586.31c0.013-0.047,0.029-0.103,0.056-0.158
		c0.088-0.18,0.234-0.337,0.409-0.465l-0.17,0.238C317.47,586.073,317.221,586.445,317.285,586.31z"/>
	<path fill="#0D2F6B" d="M260.868,499.041c3.126,6.436-4.167,18.832-8.397,17.545s-26.128-19.568-22.435-37.53
		c2.483-12.074,6.344-22.004,16.136-20.694c9.324,1.248,11.504-7.322,30.755-8.436c12.856-0.744,14.343,7.631,13.056,10.941
		s-3.862,15.196-9.562,14.343c-5.701-0.853-15.263,12.137-18.573,11.217c-3.31-0.919-5.399-3.218-7.606,0.276
		s1.673,6.366,2.317,9.991C257.214,500.373,260.868,499.041,260.868,499.041z"/>
	<path fill="#5886CE" d="M272.262,492.228c0,2.918-1.398,5.517-3.58,7.135c-0.638,0.49-1.373,0.883-2.133,1.177
		c-1.005,0.392-2.084,0.613-3.212,0.613c-4.953,0-8.95-3.997-8.95-8.926c0-4.953,3.997-8.95,8.95-8.95
		C268.265,483.278,272.262,487.275,272.262,492.228z"/>
	<circle fill="#386DC1" cx="263.329" cy="492.222" r="4.835"/>
	<path fill="#2B51EC" d="M290.751,515.351c-1.177,0.392-2.403,0.589-3.58,0.589c-8.116,0-15.914-8.337-20.622-15.399
		c0.76-0.294,1.496-0.687,2.133-1.177c5.321,7.92,13.83,16.135,21.308,13.658L290.751,515.351z"/>
	
		<ellipse transform="matrix(0.9729 -0.2312 0.2312 0.9729 -111.0023 81.0564)" fill="#050573" cx="290.381" cy="514.195" rx="2.238" ry="1.872"/>
	<path fill="#83A7E1" d="M263.18,494.52c-1.621,0-3.106-1.081-3.549-2.721c-0.563-2.086-1.127-4.592-1.731-7.289
		c-1.753-7.816-5.014-22.363-9.502-23.56c-1.962-0.523-3.129-2.538-2.605-4.502c0.523-1.962,2.532-3.13,4.502-2.605
		c8.793,2.344,11.975,16.537,14.783,29.058c0.579,2.583,1.117,4.984,1.656,6.983c0.529,1.961-0.632,3.98-2.593,4.509
		C263.819,494.478,263.497,494.52,263.18,494.52z"/>
	<path fill="#B72985" d="M369.057,514.195l11.585,8.643c0,0-41.191,86.796-53.328,87.531c-12.137,0.736-58.845-19.125-58.845-19.125
		s-3.31,77.234,16.55,125.413c-28.987,11.446-59.346,14.706-90.865,11.033c0,0,23.069-185.258,50.81-196.905
		c21.758-9.135,14.744,6.644,14.744,6.644l54.734,40.943L369.057,514.195z"/>
	<polygon fill="#B72985" points="253.356,528.148 257.982,526.399 283.805,549.257 284.566,556.024 259.709,537.429 	"/>
	<path opacity="0.1" d="M268.47,591.245c0,0-0.182,2.475-0.155,8.814l32.215,4.822l0.101-1.178
		C288.917,599.466,277.989,595.296,268.47,591.245z"/>
	<path opacity="0.1" d="M743.721,756.095l69.026-48.33v177.382c-5.149-1.937-9.686-5.64-12.775-10.961l-59.757-102.791
		C737.272,766.344,738.841,759.503,743.721,756.095z"/>
	<path fill="#FFB3B3" d="M1039.449,878.982l-34.38-3.134l-1.032-0.108c-8.288-1.387-16.005-5.476-21.722-11.432
		c-0.694-0.721-1.417-1.529-2.144-2.41l-1.254-1.635l-2.409-3.166l-46.628-66.84l11.743-9.682l56.176,69.32
		c0,0,44.316,2.446,44.622,0.973C1038.912,860.718,1037.589,870.152,1039.449,878.982z"/>
	<path fill="#5C3DC6" d="M980.051,1058.067c0,0,42.69-7.724,75.278-26.36c5.934-3.384,11.549-7.16,16.502-11.304l-1.03-2.035
		l-4.266-8.386l-14.565-28.664c-4.659,1.005-10.544,2.844-17.214,5.247c-5.076,1.839-10.618,3.997-16.38,6.375
		c-15.08,6.204-31.681,13.83-45.878,20.573c-19.592,9.293-34.574,16.919-34.574,16.919c-0.294,0.123-0.588,0.245-0.883,0.417
		c-27.488,12.432-13.756,42.96-3.58,43.843c2.207,1.03,4.634,2.011,7.234,2.967c31.362,11.451,89.255,17.238,144.059,23.221
		l2.673-16.552L980.051,1058.067z"/>
	<path fill="#174287" d="M1075.43,1083.253c4.814-6.317,7.282-9.217,14.932-11.349l27.78,40.985
		c1.366,2.015-1.793,4.376-4.068,3.509c-10.837-7.115-19.824-14.283-29.324-15.029
		C1081.511,1093.666,1081.047,1087.49,1075.43,1083.253z"/>
	<path fill="#FF5E5D" d="M835.063,863.65l-76.705-90.841c-3.763-4.456-3.405-11.476,0.799-15.68l135.247-135.247
		c4.204-4.204,10.662-3.999,14.425,0.457l76.705,90.841c9.777,11.579,8.848,29.822-2.075,40.745L872.545,864.837
		C861.622,875.761,844.84,875.229,835.063,863.65z"/>
	<path fill="#E1E3FF" d="M979.378,711.377l-71.271-84.415l-0.024-0.024l-5.405-6.406c-0.548-0.643-1.143-1.19-1.786-1.643
		l-10.287-0.571l-3.786-0.214l1.619,1.81L753.016,755.335c-4.215,4.215-4.572,11.239-0.81,15.669l76.7,90.845
		c9.787,11.597,26.551,12.12,37.481,1.191l110.919-110.919C988.236,741.191,989.165,722.974,979.378,711.377z"/>
	<path fill="#FF5E5D" d="M816.908,862.235l-76.705-90.841c-3.763-4.456-3.405-11.476,0.799-15.68l135.247-135.247
		c4.204-4.204,10.662-3.999,14.425,0.457l76.705,90.841c9.777,11.579,8.848,29.822-2.075,40.745L854.39,863.422
		C843.467,874.346,826.685,873.814,816.908,862.235z"/>
	<path fill="#FFCCCC" d="M842.465,807.03l14.488-30.183c-2.244-4.012-2.481-9.231-0.201-13.98l11.106-23.136
		c2.279-4.748,6.541-7.915,11.137-8.803l14.476-30.158C860.838,691.055,812.402,795.256,842.465,807.03z"/>
	<path fill="#FFCCCC" d="M893.47,700.77l-14.476,30.158c2.706-0.52,5.531-0.277,8.131,0.91l6.723,3.07
		c2.764,1.262,6.142-0.121,7.572-3.102l8.269-17.226c1.431-2.98,0.357-6.396-2.408-7.658l-11.503-5.252
		C895.03,701.329,894.268,701.012,893.47,700.77z"/>
	<path fill="#FFCCCC" d="M856.953,776.847l-14.488,30.183c0.701,0.443,1.439,0.811,2.188,1.153l11.503,5.252
		c2.764,1.262,6.142-0.121,7.572-3.102l8.281-17.251c1.431-2.98,0.357-6.396-2.407-7.658l-6.724-3.07
		C860.277,781.167,858.276,779.206,856.953,776.847z"/>
	<path fill="#CB1213" d="M826.026,697.153c-1.692-2.004-4.167-2.749-6.495-2.247l-8.124-9.621c-0.417-0.493-1.132-0.516-1.597-0.051
		l-3.9,3.9c-0.465,0.465-0.505,1.242-0.088,1.736l8.124,9.621c-0.656,2.483-0.183,5.229,1.509,7.233
		c2.613,3.094,7.098,3.237,10.017,0.318C828.391,705.123,828.639,700.248,826.026,697.153z"/>
	<path fill="#CB1213" d="M847.47,675.71c-1.692-2.004-4.167-2.749-6.495-2.247l-8.124-9.621c-0.417-0.493-1.132-0.516-1.597-0.051
		l-3.9,3.9c-0.465,0.465-0.505,1.242-0.088,1.736l8.124,9.621c-0.656,2.483-0.183,5.229,1.509,7.233
		c2.613,3.094,7.098,3.237,10.017,0.318C849.834,683.68,850.083,678.804,847.47,675.71z"/>
	<path fill="#CB1213" d="M868.913,654.267c-1.692-2.004-4.167-2.749-6.495-2.247l-8.124-9.621c-0.417-0.493-1.132-0.516-1.597-0.051
		l-3.9,3.9c-0.465,0.465-0.505,1.242-0.088,1.736l8.124,9.621c-0.656,2.483-0.183,5.229,1.509,7.233
		c2.613,3.094,7.098,3.237,10.017,0.318C871.278,662.236,871.526,657.361,868.913,654.267z"/>
	<path fill="#CB1213" d="M890.356,632.823c-1.692-2.004-4.167-2.749-6.495-2.247l-8.124-9.621c-0.417-0.493-1.132-0.516-1.597-0.051
		l-3.9,3.9c-0.465,0.465-0.505,1.242-0.088,1.736l8.124,9.621c-0.656,2.483-0.183,5.229,1.509,7.233
		c2.613,3.094,7.098,3.237,10.017,0.318C892.721,640.793,892.969,635.918,890.356,632.823z"/>
	<path fill="#CB1213" d="M794.011,729.168c-1.692-2.004-2.165-4.75-1.509-7.233l-8.124-9.621c-0.417-0.493-0.377-1.271,0.088-1.736
		l3.9-3.9c0.465-0.465,1.18-0.443,1.597,0.051l8.124,9.621c2.329-0.502,4.803,0.242,6.496,2.247
		c2.613,3.094,2.365,7.97-0.554,10.889C801.109,732.405,796.624,732.263,794.011,729.168z"/>
	<path fill="#CB1213" d="M772.568,750.612c-1.692-2.004-2.165-4.75-1.509-7.233l-8.124-9.621c-0.417-0.493-0.377-1.271,0.088-1.736
		l3.9-3.9c0.465-0.465,1.18-0.443,1.597,0.051l8.124,9.621c2.329-0.502,4.803,0.242,6.496,2.247
		c2.613,3.094,2.365,7.97-0.554,10.889C779.666,753.848,775.181,753.706,772.568,750.612z"/>
	<path fill="#CB1213" d="M751.125,772.055c-1.692-2.004-2.165-4.75-1.509-7.233l-8.124-9.621c-0.417-0.493-0.377-1.271,0.088-1.736
		l3.9-3.9c0.465-0.465,1.18-0.443,1.597,0.051l8.124,9.621c2.329-0.502,4.803,0.242,6.496,2.247
		c2.613,3.094,2.365,7.97-0.554,10.889C758.222,775.292,753.738,775.149,751.125,772.055z"/>
	<path fill="#775DD4" d="M1083.16,978.522l-11.034,35.555l-1.324,4.291l-0.735,2.329c-5.199,4.365-11.672,7.185-19.028,8.68
		c-21.848,4.512-51.469-2.575-78.54-15.865c-15.816-7.773-30.773-17.655-42.789-28.566c2.501,7.356,5.198,25.673,7.332,45.903
		c1.667,15.89,3.016,32.98,3.654,46.81c0.638,13.609,0.588,24.104-0.466,27.267l-12.996,1.545
		c-2.256-10.397-26.556-104.581-30.43-125.497l-0.049-0.515l-0.049-1.667c-0.049-4.512,0.956-9.269,3.065-13.486
		c2.084-4.217,5.125-7.896,8.876-10.716c3.727-2.844,8.19-4.831,12.898-5.664c4.242-0.785,8.705-0.662,12.849,0.368
		c25.428,3.31,50.758,6.572,74.739,13.094C1033.506,969.008,1058.688,972.22,1083.16,978.522z"/>
	<path fill="#EC3433" d="M1073.45,1020.403c-1.103,0.613-2.231,1.079-3.359,1.447c-0.024-0.025-0.024,0-0.049,0.025
		c-20.426,6.498-45.363-24.226-60.811-50.267c-0.956-1.569-1.373-2.82-1.447-4.144c-0.049-0.27-0.025-0.54-0.025-0.785
		c0.025-1.201,0.319-2.501,0.711-4.119c10.691-43.181,6.375-34.648,3.58-50.782c-0.172-1.054-0.343-2.231-0.515-3.506
		c-0.196-1.569-0.441-3.065-0.711-4.463c-3.457-18.758-11.206-25.232,8.386-55.981c0.907-1.422,10.887-3.531,11.893-5.051
		c6.449-9.588,9.073-9.024,20.303-0.907c15.056,10.863,30.528,33.937,36.021,59.315
		C1097.039,945.492,1088.04,1012.458,1073.45,1020.403z"/>
	<path fill="#FFB3B3" d="M1023.617,902.325l-33.277,3.862l-0.993,0.11c-8.143,0.331-16.307-2.008-22.905-6.532
		c-0.816-0.53-1.655-1.169-2.516-1.854l-1.523-1.302l-2.913-2.538l-57.594-54.174l9.202-11.519c0,0,73.706,53.843,73.86,53.799
		l35.877-7.15C1019.469,885.091,1020.087,894.315,1023.617,902.325z"/>
	<path fill="#FF8686" d="M1018.363,850.237c0.505,0.412,1.035,0.725,1.334,0.903c10.328,4.509,20.724,2.665,31.563-3.703
		c0.031-0.019,0.031-0.019,0.062-0.038c0,0-3.531-6.806,4.761-13.53c0,0-27.558-19.933-27.018-7.853
		c0.428,9.29-2.607,15.606-5.157,19.277c0,0-0.006,0.025-0.037,0.044l-0.006,0.025c-0.142,0.15-0.505,0.562-1.01,1.123
		C1021.665,847.802,1019.675,849.819,1018.363,850.237z"/>
	<path fill="#FFB3B3" d="M1020.42,812.483c0.889,1.598,1.787,2.65,2.579,3.331c-3.18,10.703-0.937,19.281,12.749,22.75
		c10.968,2.819,20.502,1.571,28.991-2.482c0.904-0.422,1.76-0.866,2.64-1.358c3.253-1.836,6.33-4.078,9.279-6.644
		c1.207-2.616,3.506-5.156,5.717-9.042c1.711-4.162,3.115-9.577,3.501-17.029c0.183-3.297-0.26-6.324-1.177-9.094
		c-1.294-3.94-3.583-7.331-6.509-10.196c-9.096-4.73-19.464-8.295-24.803-11.138c-0.337-0.196-0.698-0.345-1.035-0.483l-0.233-0.115
		c-0.035,0.012-0.081,0.047-0.093,0.07c-5.081,3.19-8.049,6.615-8.049,6.615c-1.137,0.133-2.262,0.184-3.341,0.258
		c-0.654,1.674-1.157,3.394-1.499,4.846c-0.547,2.335-0.725,4.042-0.725,4.042c-0.288,0.465-0.6,0.919-0.888,1.385
		c-0.795,1.257-1.579,2.491-2.386,3.713c-2.052,3.212-4.023,6.435-5.761,9.6C1025.18,804.849,1019.156,810.179,1020.42,812.483z"/>
	<path fill="#174287" d="M941.323,1093.7c2.099,6.983,2.924,10.381,0.384,17.216l-45.436-1.451
		c-2.234-0.071-2.286-3.692-0.414-4.915c11.13-4.218,21.303-7.032,26.978-13.69C930.306,1092.605,935.147,1095.589,941.323,1093.7z"
		/>
	<path fill="#FFB3B3" d="M903.102,840.591c-8.007-1.308-13.936-7.239-15.39-11.078c-2.442-6.45,0.24-24.681,5.368-23.958
		c5.128,0.723,8.349,11.286,11.147,11.398c1.292,0.052-0.787-8.201,2.937-5.001c4.351,3.739,3.946,16.418,3.946,16.418
		L903.102,840.591z"/>
	<path fill="#CB1213" d="M1019.205,847.826l-1.258,2.008l-1.721,4.987l-9.619,21.167c-2.948-0.088-8.431-0.818-8.806-1.039
		c0,0,1.914-18.159,10.051-25.882L1019.205,847.826z"/>
	<path fill="#7D0252" d="M1083.154,914.203c-11.982-1.677-14.189-6.134-21.956-18.227c-0.684-1.081-1.434-2.251-2.229-3.465
		c-2.074-3.178-4.413-5.892-6.752-8.385c-8.496-9.07-17.19-15.292-15.005-30.496c2.803-19.397,14.498-24.384,15.866-34.667
		c1.236-9.158-4.943-21.692-6.355-24.384c-0.044-0.088-0.088-0.154-0.11-0.221c-0.11-0.199-0.177-0.309-0.177-0.309
		c-2.824-1.236-6.156-3.354-8.915-5.848c-0.243-0.243-0.485-0.463-0.728-0.684c-4.788-4.612-7.326-10.393-0.971-14.608
		c3.156-2.096,9.268-2.758,16.197-1.854c0.132,0,0.221,0.022,0.331,0.044c8.915,1.192,19.066,4.965,25.84,11.607
		c2.935,2.869,5.208,6.267,6.51,10.217c0.927,2.758,1.368,5.781,1.169,9.091c2.229,11.717-6.201,19.882-2.714,29.437
		c3.487,9.577,14.895,19.507,11.96,35.903c-2.957,16.396-8.098,21.118,0,32.879C1103.191,911.996,1096.217,916.057,1083.154,914.203
		z"/>
	<path fill="#CB1213" d="M1038.532,900.055c-1.054,0.539-16.257,9.612-26.482,11.721c-0.172-1.054-0.343-2.231-0.515-3.506
		c-0.196-1.569-0.441-3.065-0.711-4.463C1011.032,904.274,1035.772,901.077,1038.532,900.055z"/>
	<path opacity="0.1" d="M1070.041,1021.874c-4.487,3.556-9.489,6.841-14.712,9.833c-1.398-0.613-2.82-1.398-4.291-2.329
		c-11.01-6.988-23.859-22.191-32.662-36.438c-6.228-10.078-10.47-19.666-10.593-25.477c0.073,1.324,0.49,2.575,1.447,4.144
		C1024.678,997.648,1049.616,1028.372,1070.041,1021.874z"/>
	<path fill="#D8CCFF" d="M590.591,269.544c-5.674-2.957-10.763-6.217-15.282-9.95c0.629-0.377,1.255-0.764,1.89-1.125
		c8.949-5.172,18.261-8.289,28.393-10.821l-9.316-21.86c-9.877,5.905-19.925,13.159-27.853,21.763
		c-0.836,0.889-1.596,1.815-2.396,2.722c-3.555-4.291-6.776-9.071-9.941-14.292c-4.537-7.452-8.764-15.657-14.421-23.978
		l-0.136,0.028c-1.863,9.874-1.347,19.744,1.225,29.496c2.129,8.215,6.176,16.401,12.146,23.226
		c-1.451,2.16-2.856,4.337-4.213,6.529c-1.297,2.096-0.86,4.826,1.056,6.377c2.839-2.572,5.725-5.074,8.66-7.466
		c7.45,6.432,16.554,10.65,25.622,12.499c9.989,1.983,19.968,1.723,29.543-0.851l0.044-0.5
		C606.691,276.974,598.201,273.621,590.591,269.544z"/>
</g>
<path fill="#FFFFFF" d="M0,854.788c0,0-39.302,289.845,358.967,366.572c114.971,7.2,168.098-15.259,223.948-60.135
	c55.851-44.876,13.758-53.937,93.914-120.128c65.554-54.133,178.179,1.332,467.894,140.184s562.15-54.828,562.15-54.828
	l-403.635,577.955l-1428.325,25.249l-123.81-254.81L0,854.788z"/>
<path fill="#FFFFFF" d="M582.915,1161.226c40.849-38.875,28.36-65.995,93.914-120.128"/>
</svg>
